<?xml version="1.0" encoding="iso-8859-1"?>
<!-- Uploaded to: SVG Repo, www.svgrepo.com, Generator: SVG Repo Mixer Tools -->
<svg fill="#000000" height="800px" width="800px" version="1.1" id="Layer_1" xmlns="http://www.w3.org/2000/svg" xmlns:xlink="http://www.w3.org/1999/xlink" 
	 viewBox="0 0 202.622 202.622" xml:space="preserve">
<g>
	<g>
		<g>
			<path d="M42.863,0H3.897C1.743,0,0.001,1.745,0.001,3.897v38.966c0,2.152,1.743,3.897,3.897,3.897h38.966
				c2.154,0,3.897-1.745,3.897-3.897V3.897C46.759,1.745,45.016,0,42.863,0z M7.794,38.966V7.793h31.172v31.173H7.794z"/>
			<path d="M120.794,0H81.829c-2.154,0-3.897,1.745-3.897,3.897v38.966c0,2.152,1.743,3.897,3.897,3.897h38.966
				c2.154,0,3.897-1.745,3.897-3.897V3.897C124.691,1.745,122.948,0,120.794,0z M85.725,38.966V7.793h31.172v31.173H85.725z"/>
			<path d="M198.725,0h-38.966c-2.154,0-3.897,1.745-3.897,3.897v38.966c0,2.152,1.743,3.897,3.897,3.897h38.966
				c2.154,0,3.897-1.745,3.897-3.897V3.897C202.622,1.745,200.878,0,198.725,0z M194.829,38.966h-31.172V7.793h31.172V38.966z"/>
			<path d="M42.863,77.931H3.897c-2.154,0-3.897,1.745-3.897,3.897v38.966c0,2.152,1.743,3.897,3.897,3.897h38.966
				c2.154,0,3.897-1.745,3.897-3.897V81.828C46.759,79.676,45.016,77.931,42.863,77.931z M7.794,116.897V85.724h31.172v31.173H7.794
				z"/>
			<path d="M120.794,77.931H81.829c-2.154,0-3.897,1.745-3.897,3.897v38.966c0,2.152,1.743,3.897,3.897,3.897h38.966
				c2.154,0,3.897-1.745,3.897-3.897V81.828C124.691,79.676,122.948,77.931,120.794,77.931z M85.725,116.897V85.724h31.172v31.173
				H85.725z"/>
			<path d="M198.725,77.931h-38.966c-2.154,0-3.897,1.745-3.897,3.897v38.966c0,2.152,1.743,3.897,3.897,3.897h38.966
				c2.154,0,3.897-1.745,3.897-3.897V81.828C202.622,79.676,200.878,77.931,198.725,77.931z M194.829,116.897h-31.172V85.724h31.172
				V116.897z"/>
			<path d="M42.863,155.862H3.897c-2.154,0-3.897,1.745-3.897,3.897v38.966c0,2.152,1.743,3.897,3.897,3.897h38.966
				c2.154,0,3.897-1.745,3.897-3.897v-38.966C46.759,157.607,45.016,155.862,42.863,155.862z M7.794,194.828v-31.172h31.172v31.172
				H7.794z"/>
			<path d="M120.794,155.862H81.829c-2.154,0-3.897,1.745-3.897,3.897v38.966c0,2.152,1.743,3.897,3.897,3.897h38.966
				c2.154,0,3.897-1.745,3.897-3.897v-38.966C124.691,157.607,122.948,155.862,120.794,155.862z M85.725,194.828v-31.172h31.172
				v31.172H85.725z"/>
			<path d="M198.725,155.862h-38.966c-2.154,0-3.897,1.745-3.897,3.897v38.966c0,2.152,1.743,3.897,3.897,3.897h38.966
				c2.154,0,3.897-1.745,3.897-3.897v-38.966C202.622,157.607,200.878,155.862,198.725,155.862z M194.829,194.828h-31.172v-31.172
				h31.172V194.828z"/>
		</g>
	</g>
</g>
</svg>